<svg version="1.0" xmlns="http://www.w3.org/2000/svg" width="541.000000pt" height="356.000000pt" viewBox="0 0 541.000000 356.000000" preserveAspectRatio="xMidYMid meet" style="width: 1840.64px; height: auto;"> <g transform="translate(0.000000,356.000000) scale(0.100000,-0.100000)" fill="#000000" stroke="none">  <path d="M1011 2903 c-25 -98 -77 -411 -101 -613 -6 -52 -13 -105 -16 -117 -4 -21 -8 -21 -176 -22 -211 -1 -476 -15 -486 -26 -7 -7 18 -62 95 -204 40 -74 73 -136 73 -138 0 -1 17 -31 38 -65 54 -88 92 -157 92 -167 0 -4 -55 -30 -122 -56 -196 -76 -328 -136 -328 -150 0 -11 161 -166 270 -260 147 -127 158 -144 109 -174 -40 -24 -169 -141 -169 -152 0 -5 30 -24 66 -42 65 -31 66 -33 61 -67 -8 -67 6 -80 37 -32 31 50 18 49 113 8 43 -18 121 -50 173 -71 52 -21 97 -40 100 -42 3 -3 -20 -26 -50 -53 -62 -55 -66 -51 65 -74 76 -13 94 -20 114 -43 169 -200 285 -293 245 -198 -8 20 -24 59 -35 88 l-20 52 43 -40 c23 -22 45 -42 48 -45 29 -30 200 -137 200 -125 0 3 -27 59 -60 124 -33 65 -60 120 -60 122 0 2 52 2 115 1 248 -8 565 86 792 234 105 68 591 552 601 599 3 12 -11 15 -67 15 -83 0 -82 -6 -23 95 l47 79 60 -2 60 -2 -25 19 c-14 11 -33 26 -44 33 -28 22 12 98 51 98 25 0 25 1 9 19 -16 18 -15 23 31 109 26 50 44 94 40 99 -5 4 -71 8 -148 8 -117 0 -139 2 -139 15 0 8 7 56 16 105 36 216 68 454 62 461 -8 7 -190 -42 -341 -92 -76 -26 -140 -44 -142 -43 -1 2 -15 74 -30 159 -52 296 -84 460 -94 477 -6 12 -69 -31 -216 -144 -5 -5 -55 -42 -110 -83 -55 -41 -124 -94 -154 -118 -63 -51 -51 -54 -148 38 -44 41 -126 118 -183 170 -57 52 -108 100 -114 106 -28 27 -201 164 -208 164 -4 0 -12 -17 -17 -37z m122 -63 c95 -77 325 -288 435 -397 l53 -54 47 38 c26 21 72 58 103 83 117 94 368 280 378 280 4 0 15 -39 23 -87 9 -49 25 -137 36 -198 11 -60 28 -164 37 -230 10 -66 19 -123 21 -127 3 -3 57 11 122 33 152 52 354 110 360 104 7 -6 -26 -249 -49 -370 -11 -55 -22 -125 -26 -155 l-5 -55 141 3 c162 5 155 11 105 -92 -40 -82 -40 -82 -68 -61 -17 13 -17 16 -2 46 24 48 23 49 -68 49 -61 0 -95 5 -128 20 l-44 19 11 73 c7 40 18 114 25 163 7 50 19 121 26 158 20 97 19 131 -3 122 -10 -4 -31 -11 -48 -15 -16 -4 -110 -35 -207 -69 -97 -33 -181 -61 -187 -61 -5 0 -13 26 -16 58 -7 57 -70 468 -81 530 -9 47 -16 47 -76 -1 -29 -24 -82 -66 -118 -93 -36 -28 -94 -73 -129 -100 -120 -93 -176 -133 -185 -134 -5 0 -46 35 -90 78 -276 266 -437 412 -455 412 -10 0 -51 -260 -82 -510 -11 -96 -23 -184 -25 -196 -4 -25 -59 -31 -304 -34 -182 -1 -310 -7 -316 -13 -3 -3 4 -20 15 -38 12 -19 24 -41 28 -49 4 -8 45 -80 91 -160 47 -80 106 -182 132 -226 l47 -82 -156 -58 c-182 -67 -291 -114 -291 -124 0 -4 35 -38 78 -75 128 -112 242 -218 242 -225 0 -3 -6 -14 -13 -24 -12 -17 -20 -13 -108 60 -111 93 -304 275 -304 287 0 10 127 65 290 127 72 26 138 52 148 55 25 10 22 22 -23 93 -22 34 -40 64 -40 66 0 2 -30 56 -67 119 -54 92 -155 274 -171 308 -3 6 136 12 511 23 82 2 151 6 153 9 3 3 9 45 14 93 5 49 16 135 25 192 8 56 22 146 30 200 7 53 21 130 30 170 8 40 15 84 15 98 0 35 5 32 113 -56z m82 -378 c12 -8 205 -255 255 -327 59 -83 59 -78 1 -70 -63 9 -63 12 -5 -123 90 -209 85 -190 63 -257 -10 -32 -19 -66 -19 -76 0 -22 -165 91 -173 119 -80 274 -112 402 -105 422 2 5 29 -3 61 -17 66 -30 78 -25 55 20 -79 152 -157 317 -151 317 5 0 13 -4 18 -8z m800 -200 c-8 -101 -16 -186 -19 -189 -3 -3 -23 14 -45 38 l-39 44 -26 -24 c-14 -13 -37 -41 -52 -63 l-27 -39 -23 22 -22 21 44 73 c24 40 50 78 58 84 8 7 45 61 82 122 38 60 71 106 75 101 4 -4 1 -90 -6 -190z m-72 -174 c41 -46 144 -202 177 -269 l29 -56 82 -7 c120 -11 358 -79 462 -132 45 -24 159 -96 155 -99 -2 -1 -48 3 -103 11 -55 7 -152 16 -215 19 -63 3 -131 10 -150 15 -19 5 -87 19 -150 30 -63 12 -130 25 -148 28 -30 6 -40 17 -89 107 -30 55 -81 138 -112 185 l-57 85 27 42 c53 85 53 85 92 41z m-120 -135 c47 -71 112 -177 146 -238 l61 -110 97 -17 c54 -10 123 -22 153 -27 155 -26 487 -138 553 -186 21 -16 21 -17 -18 -10 -142 22 -508 22 -775 0 -47 -4 -95 -8 -108 -9 -20 -1 -34 20 -103 154 -108 207 -126 235 -145 219 -8 -6 -42 -66 -75 -133 -33 -67 -62 -122 -63 -124 -2 -1 -41 17 -87 40 -107 53 -182 79 -193 68 -5 -5 3 -81 20 -182 l30 -173 -76 -92 c-41 -50 -99 -123 -128 -162 l-54 -72 68 -177 c96 -254 179 -433 260 -559 39 -61 34 -65 -26 -22 -222 161 -389 420 -480 746 l-19 68 44 65 c48 69 63 90 139 188 l49 63 -17 77 c-45 217 -69 482 -44 482 57 0 214 -87 409 -228 80 -57 78 -58 104 33 56 199 76 258 111 331 36 78 60 114 75 114 4 0 46 -57 92 -127z m-1118 -58 c305 -95 290 -88 293 -125 3 -31 2 -32 -25 -25 -111 30 -124 26 -125 -39 -2 -70 -20 -61 -161 83 -115 117 -149 162 -114 148 6 -2 66 -21 132 -42z m242 -170 l50 -15 7 -98 c4 -53 15 -140 26 -192 28 -133 27 -140 -27 -213 -65 -87 -135 -186 -157 -220 -17 -27 -16 -31 9 -120 45 -156 134 -355 210 -466 20 -30 46 -75 57 -100 11 -26 31 -70 45 -99 33 -70 24 -74 -32 -15 -127 131 -190 225 -289 428 -109 226 -150 364 -118 399 11 12 51 68 90 126 40 58 83 120 98 137 l26 33 -21 87 c-42 171 -61 319 -44 336 9 9 12 9 70 -8z m761 -58 c3 -16 -85 -135 -101 -136 -5 -1 11 35 35 79 41 77 59 92 66 57z m-881 -33 c18 -3 22 -13 28 -65 4 -33 18 -104 31 -157 l23 -97 -43 -55 c-83 -106 -186 -274 -180 -294 4 -12 -6 -31 -33 -60 -54 -56 -155 -184 -193 -243 l-31 -48 6 46 c9 78 43 198 75 265 16 35 30 66 30 68 0 15 95 167 152 243 l69 93 -15 77 c-24 122 -37 224 -29 236 4 6 53 3 110 -9z m921 -35 c1 -8 -24 -30 -58 -51 -72 -45 -74 -41 -13 23 46 49 65 56 71 28z m26 -55 c4 -9 5 -17 4 -18 -31 -12 -134 -44 -136 -41 -3 3 109 74 119 75 4 0 10 -7 13 -16z m-407 -18 c107 -42 120 -62 23 -37 -19 5 -47 12 -62 15 -19 4 -28 13 -28 26 0 24 -6 25 67 -4z m1471 -25 c16 -10 -22 -81 -43 -81 -25 0 -33 24 -19 58 14 32 36 40 62 23z m-994 -91 l44 -85 63 3 c35 2 132 9 214 16 83 7 155 11 161 9 13 -5 68 -163 84 -243 7 -30 23 -83 36 -117 30 -76 31 -150 5 -201 -118 -226 -628 -460 -976 -448 -154 6 -162 9 -191 73 -48 111 -174 431 -180 459 -6 31 29 82 180 262 50 61 66 86 62 104 -2 13 -7 39 -11 58 l-6 35 133 49 c210 77 322 116 330 113 4 -1 27 -40 52 -87z m-449 56 c64 -12 67 -14 35 -19 -84 -14 -120 -17 -120 -8 0 5 -3 16 -6 25 -7 19 -3 19 91 2z m65 -50 c0 -3 -24 -12 -52 -21 -29 -10 -57 -21 -62 -26 -17 -15 -26 -10 -26 15 0 21 5 25 38 29 60 6 102 7 102 3z m1310 -69 c0 -2 -22 -44 -50 -93 -27 -49 -50 -92 -50 -96 0 -4 34 -8 75 -10 l76 -3 -165 -170 c-153 -157 -165 -168 -165 -140 -1 25 19 51 114 150 63 66 115 123 115 128 0 4 -25 7 -55 7 -66 0 -70 13 -27 87 15 27 38 70 52 96 20 39 29 47 52 47 16 0 28 -2 28 -3z m-251 -49 c80 -86 80 -244 0 -327 l-23 -24 -18 43 c-37 87 -68 301 -48 326 20 24 57 16 89 -18z m-2066 -450 c-8 -23 -17 -47 -21 -52 -3 -6 -7 -26 -8 -44 -1 -44 -4 -45 -62 -20 -62 28 -63 23 23 97 84 72 87 73 68 19z m228 -189 c128 -59 169 -86 169 -114 0 -8 -29 -1 -87 22 -76 29 -252 103 -261 109 -8 5 20 44 32 44 7 0 73 -28 147 -61z m196 -189 c-6 -25 -3 -30 13 -30 16 0 40 -26 40 -42 0 -3 -143 16 -158 21 -6 2 93 80 102 80 5 1 6 -12 3 -29z" class=""></path> <path d="M2049 1268 c-134 -129 -181 -196 -133 -191 14 1 24 -10 38 -43 72 -175 292 -136 290 53 -1 105 -90 204 -151 168 -22 -14 -20 -10 10 18 34 31 42 57 19 57 -4 0 -37 -28 -73 -62z m135 -87 c94 -135 -35 -295 -156 -193 -72 60 -76 129 -10 170 117 74 130 76 166 23z"></path> <path d="M1190 985 c0 -11 12 -15 48 -16 l47 -1 -29 -13 c-71 -31 -61 -171 16 -245 137 -132 303 18 223 203 -5 12 -3 17 9 17 21 0 21 26 0 34 -78 30 -314 46 -314 21z m275 -90 c37 -75 14 -170 -47 -196 -81 -33 -178 52 -178 158 0 58 -11 51 115 73 77 13 88 9 110 -35z"></path> <path d="M1920 721 c-45 -46 -80 -63 -152 -76 -25 -4 -38 -11 -38 -22 0 -37 149 6 208 60 40 37 61 91 33 86 -3 -1 -26 -22 -51 -48z"></path> <path d="M4209 2475 c-325 -55 -856 -316 -1093 -537 -66 -62 -67 -64 -56 -93 31 -78 93 -290 110 -378 10 -53 21 -101 24 -105 3 -5 -4 -28 -16 -52 -46 -93 -33 -219 31 -292 34 -38 39 -50 43 -111 21 -260 625 -587 1073 -581 80 1 141 23 198 73 30 27 46 33 91 35 88 4 176 74 217 171 19 45 31 56 123 116 94 62 284 164 350 189 l29 11 -6 117 c-19 341 -191 845 -388 1132 -99 146 -121 158 -284 160 -67 0 -72 2 -115 41 -145 131 -154 134 -331 104z m273 -84 l83 -78 114 -6 c144 -8 137 -4 245 -149 167 -224 363 -800 381 -1118 l6 -105 -121 -60 c-67 -33 -152 -79 -188 -103 -114 -74 -169 -97 -148 -63 8 13 146 108 219 152 53 31 70 49 48 49 -13 0 -85 -42 -89 -52 -2 -4 -8 -8 -14 -8 -5 0 -46 -25 -89 -56 -43 -30 -79 -51 -79 -46 0 5 18 22 40 37 22 15 48 40 57 55 20 32 129 116 214 166 64 38 91 64 65 64 -18 0 -97 -46 -173 -102 -60 -44 -62 -40 -29 40 48 116 71 229 44 220 -6 -2 -20 -35 -29 -74 -20 -79 -70 -217 -99 -274 -26 -52 -79 -93 -179 -141 -102 -49 -125 -47 -39 3 82 46 173 127 159 141 -7 7 -27 -5 -60 -36 -91 -81 -310 -206 -343 -195 -6 2 25 31 68 65 114 88 226 209 241 260 47 159 64 483 26 483 -16 0 -18 -15 -19 -163 -2 -228 -31 -343 -109 -420 -20 -21 -69 -2 -85 32 -18 40 -31 121 -31 204 0 67 -3 78 -17 75 -30 -6 -24 -164 9 -247 14 -34 7 -35 -48 -8 -72 37 -115 131 -125 277 -2 23 -8 35 -18 35 -23 0 -16 -86 15 -174 14 -41 25 -76 25 -77 0 -4 -108 69 -139 94 l-24 19 22 66 c25 78 25 77 8 77 -30 0 -81 -203 -86 -335 -3 -89 -3 -89 -62 -26 -92 99 -103 269 -30 461 20 51 20 70 1 70 -32 0 -84 -231 -76 -338 2 -41 3 -72 1 -70 -53 57 -135 195 -135 226 0 85 119 368 199 474 43 58 50 78 26 78 -59 0 -255 -421 -255 -548 0 -33 34 -105 68 -144 8 -10 10 -18 5 -18 -6 0 -17 7 -24 16 -8 9 -30 27 -49 39 -101 64 -184 203 -193 325 -3 32 -8 46 -20 48 -33 7 -11 -113 37 -207 29 -54 2 -34 -118 89 l-116 120 29 57 c39 78 95 169 126 206 27 34 32 57 12 57 -39 0 -211 -306 -188 -334 9 -11 14 -64 17 -173 2 -87 7 -178 13 -203 12 -57 9 -60 -18 -17 -27 44 -81 260 -88 355 -3 39 -10 72 -14 72 -17 0 -13 -125 7 -200 24 -93 15 -95 -21 -5 -37 91 -51 176 -36 227 19 63 89 214 133 283 36 58 39 100 3 65 -20 -22 -100 -168 -114 -213 -17 -49 -27 -40 -35 30 -11 90 -39 193 -53 193 -16 0 -16 -9 2 -79 31 -121 56 -421 35 -421 -3 0 -13 48 -23 108 -27 164 -37 202 -53 202 -17 0 -17 -5 -4 -50 36 -123 59 -290 40 -290 -10 0 -23 45 -40 138 -12 66 -67 252 -93 314 l-16 37 67 62 c266 246 910 533 1209 538 51 1 52 0 135 -78z m-935 -1029 l72 -67 -34 -25 c-47 -35 -75 -98 -75 -166 0 -172 228 -190 287 -23 10 27 21 48 25 47 20 -8 167 -128 198 -163 96 -107 145 -155 175 -169 18 -9 35 -26 39 -38 16 -65 92 -105 160 -87 79 21 153 140 131 210 -4 12 -3 19 1 17 5 -2 35 -17 67 -32 48 -23 57 -31 45 -41 -19 -18 -182 -147 -212 -168 -56 -39 -19 -47 106 -23 40 8 81 18 92 22 16 6 15 2 -6 -32 -13 -21 -35 -68 -48 -104 -59 -155 -181 -202 -420 -162 -235 39 -471 140 -686 294 -195 139 -235 244 -159 417 19 43 35 88 35 100 0 30 18 36 25 8 8 -31 106 -169 124 -175 12 -4 13 6 7 54 -4 33 -12 91 -16 129 -8 64 -14 245 -7 245 1 0 34 -30 74 -68z m-244 -42 c27 -71 24 -124 -8 -202 -15 -35 -29 -73 -32 -85 -7 -30 -16 -29 -47 7 -64 77 -61 215 9 306 35 46 52 41 78 -26z m410 -116 c84 -55 90 -98 22 -166 -108 -108 -251 14 -179 153 40 78 52 79 157 13z m-346 29 c-4 -3 -7 0 -7 7 0 7 3 10 7 7 3 -4 3 -10 0 -14z m924 -194 c79 -50 79 -55 2 -62 -81 -6 -72 -12 -66 46 7 56 4 55 64 16z m-48 -137 c-21 -51 -23 -51 -23 0 0 40 2 46 19 41 18 -5 18 -7 4 -41z m185 11 c35 -9 66 -23 69 -30 12 -32 -9 -106 -41 -140 -103 -113 -251 0 -191 144 25 59 30 60 163 26z m402 -226 c0 -113 -119 -236 -227 -237 -40 0 -41 -9 11 102 49 105 61 119 143 158 69 33 73 31 73 -23z" class=""></path>                <path d="M3820 725 c0 -15 74 -52 124 -62 53 -11 26 27 -38 53 -69 28 -86 30 -86 9z" class=""></path> <path d="M2875 3491 c-61 -15 -125 -79 -125 -126 0 -17 -2 -17 -22 3 -137 127 -348 -41 -269 -214 27 -59 93 -107 229 -168 67 -30 134 -64 151 -75 l29 -21 27 52 c15 29 51 85 81 124 94 128 126 214 110 298 -16 86 -120 149 -211 127z m88 -62 c68 -35 96 -99 77 -178 -11 -46 -28 -76 -110 -192 -25 -35 -51 -77 -58 -93 -12 -27 -13 -28 -36 -12 -14 8 -71 36 -128 61 -138 61 -176 88 -199 138 -64 142 74 270 207 192 l42 -25 7 29 c15 70 128 116 198 80z"></path> <path d="M3257 3157 c-154 -50 -185 -177 -108 -448 22 -80 41 -156 41 -170 0 -43 13 -52 57 -40 21 6 104 15 184 21 225 16 301 46 361 139 100 158 -79 359 -254 286 -15 -6 -18 -1 -18 32 0 125 -138 220 -263 180z m164 -83 c59 -29 86 -82 80 -153 -2 -20 1 -23 21 -17 131 40 227 -19 236 -142 9 -125 -87 -189 -299 -203 -72 -5 -149 -14 -171 -20 -50 -13 -46 -18 -68 87 -10 49 -26 109 -35 134 -38 106 -32 210 17 266 62 70 141 87 219 48z"></path> <path d="M2580 2873 c-99 -31 -114 -100 -50 -242 22 -49 40 -94 40 -101 0 -7 7 -10 18 -5 9 3 59 17 109 30 104 27 138 45 159 86 42 82 -38 181 -121 149 -29 -11 -44 -2 -45 26 0 30 -74 68 -110 57z m78 -63 c12 -12 22 -30 22 -41 0 -16 4 -19 18 -13 80 36 145 -46 89 -112 -20 -22 -184 -85 -191 -72 -22 41 -66 160 -66 178 1 65 82 102 128 60z" class=""></path> </g> </svg>